<?xml version="1.0" standalone="no"?>
<!DOCTYPE svg PUBLIC "-//W3C//DTD SVG 20010904//EN"
 "http://www.w3.org/TR/2001/REC-SVG-20010904/DTD/svg10.dtd">
<svg version="1.0" xmlns="http://www.w3.org/2000/svg"
 width="500.000000pt" height="500.000000pt" viewBox="0 0 500.000000 500.000000"
 preserveAspectRatio="xMidYMid meet">
<metadata>
Created by potrace 1.11, written by Peter Selinger 2001-2013
</metadata>
<g transform="translate(0.000000,500.000000) scale(0.100000,-0.100000)"
fill="#000000" stroke="none">
<path d="M659 3453 c-1 -5 -2 -479 -3 -1055 l-1 -1048 177 0 c163 0 178 2 179
18 0 9 1 329 1 710 1 380 4 692 7 692 4 0 13 -21 21 -47 7 -27 38 -109 68
-183 51 -127 61 -153 96 -233 36 -79 57 -130 106 -252 28 -71 62 -152 74 -180
30 -66 61 -149 78 -205 13 -44 13 -45 61 -47 38 -2 47 1 48 15 0 9 2 127 3
262 2 268 5 250 -66 400 -22 47 -46 106 -54 131 -8 25 -41 106 -75 180 -33 74
-97 217 -141 319 -44 102 -84 190 -88 195 -13 17 -102 229 -106 254 -3 13 -12
37 -20 52 l-15 29 -174 0 c-96 0 -176 -3 -176 -7z"/>
<path d="M2205 3328 c-32 -73 -72 -164 -90 -203 -28 -59 -66 -146 -140 -320
-7 -16 -19 -45 -26 -62 -8 -18 -17 -33 -20 -33 -4 0 -9 -8 -12 -17 -14 -46
-77 -213 -98 -258 -13 -27 -24 -52 -24 -55 -1 -6 -19 -44 -69 -153 l-36 -78 0
-263 0 -264 50 1 49 0 41 101 c22 56 42 110 44 121 3 11 43 115 91 230 48 116
120 293 162 395 41 102 85 208 97 235 13 28 26 57 29 65 6 18 7 -102 7 -857
l0 -563 175 0 175 0 0 1055 0 1055 -174 0 -173 0 -58 -132z"/>
<path d="M3128 3453 c-2 -5 -4 -478 -3 -1053 l0 -1045 175 0 174 0 1 1035 c0
569 -1 1043 -3 1053 -4 15 -21 17 -173 17 -92 0 -169 -3 -171 -7z"/>
<path d="M3582 3326 l0 -136 117 0 c133 0 196 -14 272 -60 113 -68 164 -180
162 -355 -2 -148 -55 -274 -144 -347 -67 -54 -120 -68 -274 -70 l-133 -2 0
-123 1 -123 46 -1 c105 -3 221 4 277 15 105 21 230 78 333 151 61 43 119 118
154 201 82 192 95 383 37 536 -77 204 -243 348 -480 417 -55 17 -113 24 -221
28 l-147 5 0 -136z"/>
</g>
</svg>