<?xml version="1.0" standalone="no"?>
<!DOCTYPE svg PUBLIC "-//W3C//DTD SVG 20010904//EN"
 "http://www.w3.org/TR/2001/REC-SVG-20010904/DTD/svg10.dtd">
<svg version="1.0" xmlns="http://www.w3.org/2000/svg"
 width="512.000000pt" height="512.000000pt" viewBox="0 0 512.000000 512.000000"
 preserveAspectRatio="xMidYMid meet">
<metadata>
Created by potrace 1.14, written by Peter Selinger 2001-2017
</metadata>
<g transform="translate(0.000000,512.000000) scale(0.100000,-0.100000)"
fill="#000000" stroke="none">
<path d="M0 2560 l0 -2560 2560 0 2560 0 0 2560 0 2560 -2560 0 -2560 0 0
-2560z m1450 35 l0 -945 498 -2 497 -3 3 -133 3 -132 -678 2 -678 3 -3 1065
c-1 586 0 1071 3 1078 3 9 49 12 180 12 l175 0 0 -945z m1700 -135 l0 -1080
-175 0 -175 0 0 1080 0 1080 175 0 175 0 0 -1080z m490 1051 c257 -67 463
-260 516 -487 23 -97 15 -292 -16 -389 -33 -105 -85 -192 -160 -265 -149 -146
-332 -210 -603 -210 l-108 0 3 128 3 127 145 5 c129 4 151 8 200 31 71 33 114
70 147 126 81 139 86 400 9 522 -32 50 -97 105 -164 138 -48 23 -70 27 -195
32 l-142 6 -3 134 -3 134 143 -5 c100 -4 168 -12 228 -27z"/>
</g>
</svg>
